<svg xmlns="http://www.w3.org/2000/svg" width="470.7" height="110.288" viewBox="0 0 470.7 110.288">
  <g id="Group_12" data-name="Group 12" transform="translate(-69.771 -600)">
    <g id="Group_1" data-name="Group 1" transform="translate(-754.774 69.042)">
      <rect id="Rectangle_4" data-name="Rectangle 4" width="31.194" height="31.194" transform="translate(868.659 553.016) rotate(45)" fill="#f97927" opacity="0.6"/>
      <path id="Rectangle_11" data-name="Rectangle 11" d="M0,0H31.194V31.194H4a4,4,0,0,1-4-4Z" transform="translate(846.602 575.073) rotate(45)" fill="#f97927" opacity="0.8"/>
      <rect id="Rectangle_7" data-name="Rectangle 7" width="31.194" height="31.194" transform="translate(912.774 553.016) rotate(45)" fill="#f97927" opacity="0.6"/>
      <rect id="Rectangle_9" data-name="Rectangle 9" width="31.194" height="31.194" transform="translate(890.716 575.073) rotate(45)" fill="#f97927" opacity="0.8"/>
      <path id="Rectangle_13" data-name="Rectangle 13" d="M0,0H31.194V27.194a4,4,0,0,1-4,4H0Z" transform="translate(912.774 597.131) rotate(45)" fill="#f97927"/>
      <path id="Rectangle_14" data-name="Rectangle 14" d="M0,0H31.194V27.194a4,4,0,0,1-4,4H0Z" transform="translate(868.659 597.131) rotate(45)" fill="#f97927"/>
      <path id="Rectangle_15" data-name="Rectangle 15" d="M0,0H31.194V27.194a4,4,0,0,1-4,4H0Z" transform="translate(956.889 597.131) rotate(45)" fill="#f97927"/>
      <rect id="Rectangle_10" data-name="Rectangle 10" width="31.194" height="31.194" transform="translate(934.831 575.073) rotate(45)" fill="#f97927" opacity="0.8"/>
      <path id="Rectangle_12" data-name="Rectangle 12" d="M0,0H27.194a4,4,0,0,1,4,4V31.194H0Z" transform="translate(978.946 575.073) rotate(45)" fill="#f97927" opacity="0.8"/>
      <rect id="Rectangle_8" data-name="Rectangle 8" width="31.194" height="31.194" transform="translate(956.889 553.016) rotate(45)" fill="#f97927" opacity="0.6"/>
      <path id="Rectangle_5" data-name="Rectangle 5" d="M3,0H31.194V31.194H0V3A3,3,0,0,1,3,0Z" transform="translate(890.716 530.958) rotate(45)" fill="#f97927" opacity="0.4"/>
      <path id="Rectangle_6" data-name="Rectangle 6" d="M3,0H31.194V31.194H0V3A3,3,0,0,1,3,0Z" transform="translate(934.831 530.958) rotate(45)" fill="#f97927" opacity="0.4"/>
    </g>
    <path id="Path_19" data-name="Path 19" d="M-104.58,0l-14.76-21.54L-105.18-42H-116.1l-12.84,18.24V-42h-9.6V0h9.6V-19.44L-115.5,0Zm7.8-32.64a5.455,5.455,0,0,0,5.4-5.4,5.455,5.455,0,0,0-5.4-5.4,5.455,5.455,0,0,0-5.4,5.4A5.455,5.455,0,0,0-96.78-32.64ZM-101.28,0h9V-30h-9ZM-68.1-30.84c-3.96,0-6.96,1.44-8.58,3.66V-30h-9V0h9V-16.38c0-4.26,2.28-6.18,5.58-6.18,2.88,0,5.22,1.74,5.22,5.46V0h9V-18.42C-56.88-26.52-62.04-30.84-68.1-30.84Zm39.42.84v3.06a10.658,10.658,0,0,0-8.76-3.9c-8.52,0-14.76,6.96-14.76,15.24S-45.96-.36-37.44-.36a10.658,10.658,0,0,0,8.76-3.9V-1.5c0,4.26-2.58,6.42-6.78,6.42-3.96,0-5.7-1.68-6.84-3.78l-7.68,4.44c2.76,4.92,7.98,7.26,14.22,7.26,7.98,0,15.84-4.26,15.84-14.34V-30ZM-35.94-8.64c-4.26,0-7.26-2.82-7.26-6.96s3-6.96,7.26-6.96,7.26,2.82,7.26,6.96S-31.68-8.64-35.94-8.64ZM11.88-39v-3H-11.4V0h3.18V-19.2H11.16v-3H-8.22V-39Zm8.7,1.74a2.407,2.407,0,0,0,2.4-2.4A2.4,2.4,0,0,0,20.58-42a2.4,2.4,0,0,0-2.4,2.34A2.407,2.407,0,0,0,20.58-37.26ZM19.08,0h3V-30h-3ZM33.36-22.14c0-3.6,3.3-5.64,7.2-5.64,3.3,0,6.42,1.44,7.68,4.56l2.52-1.44c-1.62-3.66-5.34-6-10.2-6-6.12,0-10.2,3.78-10.2,8.52,0,10.8,18.18,6.12,18.18,14.28,0,3.78-3.54,5.64-7.74,5.64-4.5,0-7.74-2.04-8.82-5.28L29.4-6C30.84-2.16,34.8.66,40.8.66c6.42,0,10.74-3.6,10.74-8.52C51.54-18.84,33.36-14.1,33.36-22.14Zm38.88-8.52c-4.62,0-8.46,1.92-10.74,6.36V-42h-3V0h3V-15.84c0-8.1,4.62-11.94,10.5-11.94,5.64,0,8.82,3.6,8.82,9.12V0h3.06V-18.66C83.88-25.92,79.38-30.66,72.24-30.66Zm33.6,0C96.66-30.66,90.3-23.82,90.3-15,90.3-5.94,96.84.66,106.08.66c5.94,0,10.62-2.7,13.08-6.78l-2.64-1.56c-1.74,3.18-5.46,5.46-10.38,5.46-6.84,0-12-4.44-12.72-11.22H120.6c0-.48.06-.96.06-1.44C120.66-23.1,114.96-30.66,105.84-30.66Zm0,2.88c5.88,0,11.04,4.08,11.7,11.4H93.42A12.092,12.092,0,0,1,105.84-27.78Zm24.84,3.66V-30h-3V0h3V-16.68c0-7.68,4.86-10.86,10.02-10.86v-2.88C136.62-30.42,132.72-28.86,130.68-24.12Z" transform="translate(399.771 683)" fill="#fff"/>
  </g>
</svg>
